<?xml version="1.0" encoding="UTF-8" standalone="no"?>
<!DOCTYPE svg PUBLIC "-//W3C//DTD SVG 1.1//EN" "http://www.w3.org/Graphics/SVG/1.1/DTD/svg11.dtd">
<svg width="100%" height="100%" viewBox="0 0 1080 1080" version="1.1" xmlns="http://www.w3.org/2000/svg" xmlns:xlink="http://www.w3.org/1999/xlink" xml:space="preserve" xmlns:serif="http://www.serif.com/" style="fill-rule:evenodd;clip-rule:evenodd;stroke-linejoin:round;stroke-miterlimit:2;">
    <g>
        <g transform="matrix(1.09067,0,0,1.14008,-48.9601,-30.9519)">
            <path d="M444.209,808.448C355.766,797.964 305.268,790.871 273.942,786.111L126.985,431.42C109.747,389.814 129.531,342.039 171.137,324.801L648.58,126.985C690.186,109.747 737.961,129.531 755.199,171.137L953.015,648.58C970.253,690.186 950.469,737.961 908.863,755.199L710.036,837.578C700.466,836.623 689.3,835.519 675.623,834.081C596.485,825.766 531.949,818.636 479.088,812.528L520.519,634.195C552.077,633.364 582.285,627.551 611.144,616.755C640.002,605.959 665.435,589.869 687.443,568.484C709.45,547.1 726.89,520.317 739.762,488.137C752.634,455.956 759.07,417.859 759.07,373.844C759.07,351.837 756.267,333.463 750.662,318.722C745.056,303.981 737.478,292.147 727.928,283.22C718.377,274.292 707.27,267.96 694.605,264.223C681.941,260.486 668.549,258.617 654.432,258.617C636.161,258.617 619.863,262.977 605.538,271.697C591.212,280.417 578.444,292.562 567.233,308.134C556.022,323.705 546.471,342.287 538.582,363.879C530.692,385.471 524.256,408.931 519.273,434.261L483.148,618.624C413.804,617.793 379.133,577.723 379.133,498.414C379.133,482.22 380.482,464.469 383.181,445.16C385.88,425.852 390.448,406.025 396.884,385.678C403.32,365.332 411.624,345.193 421.798,325.262C431.971,305.331 444.532,286.853 459.48,269.829L404.669,280.417C393.873,293.289 384.012,308.341 375.084,325.573C366.157,342.806 358.579,360.868 352.35,379.761C346.122,398.654 341.346,417.755 338.025,437.063C334.703,456.372 333.042,474.33 333.042,490.94C333.042,515.854 336.779,537.134 344.253,554.782C351.727,572.429 362.004,587.066 375.084,598.693C388.164,610.319 403.631,619.039 421.486,624.852C439.341,630.665 458.65,633.78 479.411,634.195L444.209,808.448ZM523.633,617.378L565.364,418.689C568.686,402.495 572.527,385.782 576.887,368.55C581.247,351.318 586.749,335.643 593.392,321.525C600.036,307.407 607.926,295.781 617.061,286.645C626.196,277.51 637.199,272.943 650.072,272.943C692.01,272.943 712.979,303.878 712.979,365.747C712.979,406.855 707.685,442.98 697.097,474.123C686.508,505.265 672.39,531.425 654.743,552.602C637.096,573.779 616.853,589.765 594.015,600.561C571.178,611.357 547.717,616.963 523.633,617.378Z" style="fill:rgb(255,179,0);"/>
        </g>
        <g transform="matrix(1.09067,0,0,1.14008,-48.9601,-30.9519)">
            <path d="M445.261,803.236C385.052,778.335 338.987,753.947 335.696,751.554C274.472,707.036 277.703,696.956 218.999,671.446L157.452,350.19C148.978,305.958 178.009,263.168 222.241,254.694L729.81,157.452C774.042,148.978 816.832,178.009 825.306,222.241L922.548,729.81C931.022,774.042 901.991,816.832 857.759,825.306L658.703,863.442C652.844,860.272 652.595,858.641 650.766,858.586C599.39,857.044 535.22,837.963 478.209,816.314L520.519,634.195C552.077,633.364 582.285,627.551 611.144,616.755C640.002,605.959 665.435,589.869 687.443,568.484C709.45,547.1 726.89,520.317 739.762,488.137C752.634,455.956 759.07,417.859 759.07,373.844C759.07,351.837 756.267,333.463 750.662,318.722C745.056,303.981 737.478,292.147 727.928,283.22C718.377,274.292 707.27,267.96 694.605,264.223C681.941,260.486 668.549,258.617 654.432,258.617C636.161,258.617 619.863,262.977 605.538,271.697C591.212,280.417 578.444,292.562 567.233,308.134C556.022,323.705 546.471,342.287 538.582,363.879C530.692,385.471 524.256,408.931 519.273,434.261L483.148,618.624C413.804,617.793 379.133,577.723 379.133,498.414C379.133,482.22 380.482,464.469 383.181,445.16C385.88,425.852 390.448,406.025 396.884,385.678C403.32,365.332 411.624,345.193 421.798,325.262C431.971,305.331 444.532,286.853 459.48,269.829L404.669,280.417C393.873,293.289 384.012,308.341 375.084,325.573C366.157,342.806 358.579,360.868 352.35,379.761C346.122,398.654 341.346,417.755 338.025,437.063C334.703,456.372 333.042,474.33 333.042,490.94C333.042,515.854 336.779,537.134 344.253,554.782C351.727,572.429 362.004,587.066 375.084,598.693C388.164,610.319 403.631,619.039 421.486,624.852C439.341,630.665 458.65,633.78 479.411,634.195L445.261,803.236ZM523.633,617.378L565.364,418.689C568.686,402.495 572.527,385.782 576.887,368.55C581.247,351.318 586.749,335.643 593.392,321.525C600.036,307.407 607.926,295.781 617.061,286.645C626.196,277.51 637.199,272.943 650.072,272.943C692.01,272.943 712.979,303.878 712.979,365.747C712.979,406.855 707.685,442.98 697.097,474.123C686.508,505.265 672.39,531.425 654.743,552.602C637.096,573.779 616.853,589.765 594.015,600.561C571.178,611.357 547.717,616.963 523.633,617.378Z" style="fill:rgb(212,91,43);"/>
        </g>
        <g transform="matrix(1.13264,2.53148e-16,-2.42177e-16,1.18395,-175.529,-90.4704)">
            <path d="M525.574,897.659L382.91,897.659C339.543,897.659 304.334,863.976 304.334,822.488L304.334,318.03C304.334,276.542 339.543,242.859 382.91,242.859L880.558,242.859C923.926,242.859 959.134,276.542 959.134,318.03L959.134,822.488C959.134,863.976 923.926,897.659 880.558,897.659L557.986,897.659L612.975,660.963C643.364,660.163 672.452,654.566 700.241,644.17C728.031,633.774 752.521,618.28 773.713,597.688C794.905,577.096 811.698,551.306 824.093,520.318C836.488,489.33 842.686,452.644 842.686,410.261C842.686,389.069 839.987,371.376 834.589,357.182C829.191,342.987 821.894,331.591 812.698,322.995C803.501,314.398 792.805,308.301 780.61,304.702C768.415,301.103 755.52,299.304 741.925,299.304C724.332,299.304 708.638,303.502 694.844,311.899C681.049,320.296 668.754,331.991 657.958,346.985C647.162,361.98 637.966,379.873 630.369,400.665C622.772,421.456 616.574,444.048 611.776,468.438L576.99,645.969C510.216,645.169 476.829,606.584 476.829,530.214C476.829,514.62 478.128,497.527 480.727,478.934C483.326,460.341 487.724,441.249 493.922,421.656C500.119,402.064 508.116,382.672 517.913,363.479C527.709,344.287 539.804,326.493 554.198,310.1L501.419,320.296C491.023,332.691 481.527,347.185 472.93,363.779C464.333,380.372 457.036,397.766 451.039,415.959C445.041,434.152 440.443,452.544 437.244,471.137C434.045,489.73 432.446,507.023 432.446,523.017C432.446,547.008 436.044,567.5 443.242,584.493C450.439,601.486 460.335,615.581 472.93,626.776C485.525,637.972 500.419,646.369 517.613,651.967C534.806,657.564 553.399,660.563 573.391,660.963L525.574,897.659ZM615.974,644.769L656.159,453.444C659.357,437.85 663.056,421.756 667.254,405.163C671.453,388.569 676.751,373.475 683.148,359.88C689.546,346.286 697.143,335.09 705.939,326.294C714.736,317.497 725.332,313.099 737.727,313.099C778.111,313.099 798.303,342.887 798.303,402.464C798.303,442.048 793.205,476.835 783.009,506.823C772.813,536.812 759.219,562.002 742.225,582.394C725.232,602.786 705.739,618.18 683.748,628.576C661.756,638.972 639.165,644.37 615.974,644.769Z" style="fill:rgb(43,181,212);"/>
        </g>
    </g>
</svg>
