<?xml version="1.0" encoding="UTF-8" standalone="no"?>
<!DOCTYPE svg PUBLIC "-//W3C//DTD SVG 1.1//EN" "http://www.w3.org/Graphics/SVG/1.1/DTD/svg11.dtd">
<svg width="100%" height="100%" viewBox="0 0 1080 1080" version="1.1" xmlns="http://www.w3.org/2000/svg" xmlns:xlink="http://www.w3.org/1999/xlink" xml:space="preserve" xmlns:serif="http://www.serif.com/" style="fill-rule:evenodd;clip-rule:evenodd;stroke-linejoin:round;stroke-miterlimit:2;">
    <g transform="matrix(1.04205,0,0,1.03701,-18.769,-33.1314)">
        <g transform="matrix(19.6952,0,0,20.5875,243.083,695.823)">
            <g transform="matrix(94.5836,0,0,94.5836,36.1616,0)">
            </g>
            <text x="0px" y="0px" style="font-family:'SavoyeLetPlain', 'Savoye LET';font-size:94.584px;">φ</text>
        </g>
        <g transform="matrix(1.51658,3.38958e-16,-3.24268e-16,1.58528,-421.85,-351.99)">
            <path d="M525.574,897.659L382.91,897.659C339.543,897.659 304.334,863.976 304.334,822.488L304.334,318.03C304.334,276.542 339.543,242.859 382.91,242.859L880.558,242.859C923.926,242.859 959.134,276.542 959.134,318.03L959.134,822.488C959.134,863.976 923.926,897.659 880.558,897.659L557.986,897.659L612.975,660.963C643.364,660.163 672.452,654.566 700.241,644.17C728.031,633.774 752.521,618.28 773.713,597.688C794.905,577.096 811.698,551.306 824.093,520.318C836.488,489.33 842.686,452.644 842.686,410.261C842.686,389.069 839.987,371.376 834.589,357.182C829.191,342.987 821.894,331.591 812.698,322.995C803.501,314.398 792.805,308.301 780.61,304.702C768.415,301.103 755.52,299.304 741.925,299.304C724.332,299.304 708.638,303.502 694.844,311.899C681.049,320.296 668.754,331.991 657.958,346.985C647.162,361.98 637.966,379.873 630.369,400.665C622.772,421.456 616.574,444.048 611.776,468.438L576.99,645.969C510.216,645.169 476.829,606.584 476.829,530.214C476.829,514.62 478.128,497.527 480.727,478.934C483.326,460.341 487.724,441.249 493.922,421.656C500.119,402.064 508.116,382.672 517.913,363.479C527.709,344.287 539.804,326.493 554.198,310.1L501.419,320.296C491.023,332.691 481.527,347.185 472.93,363.779C464.333,380.372 457.036,397.766 451.039,415.959C445.041,434.152 440.443,452.544 437.244,471.137C434.045,489.73 432.446,507.023 432.446,523.017C432.446,547.008 436.044,567.5 443.242,584.493C450.439,601.486 460.335,615.581 472.93,626.776C485.525,637.972 500.419,646.369 517.613,651.967C534.806,657.564 553.399,660.563 573.391,660.963L525.574,897.659ZM615.974,644.769L656.159,453.444C659.357,437.85 663.056,421.756 667.254,405.163C671.453,388.569 676.751,373.475 683.148,359.88C689.546,346.286 697.143,335.09 705.939,326.294C714.736,317.497 725.332,313.099 737.727,313.099C778.111,313.099 798.303,342.887 798.303,402.464C798.303,442.048 793.205,476.835 783.009,506.823C772.813,536.812 759.219,562.002 742.225,582.394C725.232,602.786 705.739,618.18 683.748,628.576C661.756,638.972 639.165,644.37 615.974,644.769Z" style="fill:rgb(43,181,212);"/>
        </g>
    </g>
</svg>
